<svg xmlns="http://www.w3.org/2000/svg" width="900" height="520" style="background:#1a1a2e;font-family:-apple-system,Microsoft YaHei,sans-serif">
<text x="450.0" y="28" text-anchor="middle" fill="#eee" font-size="16" font-weight="bold"> 1D</text>
<text x="450.0" y="44" text-anchor="middle" fill="#888" font-size="11"> ~ </text>
<line x1="65" y1="50.0" x2="880" y2="50.0" stroke="#2a2a3e" stroke-dasharray="3,3"/>
<text x="60" y="54.0" text-anchor="end" fill="#888" font-size="10">44.85</text>
<line x1="65" y1="117.6" x2="880" y2="117.6" stroke="#2a2a3e" stroke-dasharray="3,3"/>
<text x="60" y="121.6" text-anchor="end" fill="#888" font-size="10">40.61</text>
<line x1="65" y1="185.2" x2="880" y2="185.2" stroke="#2a2a3e" stroke-dasharray="3,3"/>
<text x="60" y="189.2" text-anchor="end" fill="#888" font-size="10">36.37</text>
<line x1="65" y1="252.8" x2="880" y2="252.8" stroke="#2a2a3e" stroke-dasharray="3,3"/>
<text x="60" y="256.8" text-anchor="end" fill="#888" font-size="10">32.12</text>
<line x1="65" y1="320.4" x2="880" y2="320.4" stroke="#2a2a3e" stroke-dasharray="3,3"/>
<text x="60" y="324.4" text-anchor="end" fill="#888" font-size="10">27.88</text>
<line x1="65" y1="388.0" x2="880" y2="388.0" stroke="#2a2a3e" stroke-dasharray="3,3"/>
<text x="60" y="392.0" text-anchor="end" fill="#888" font-size="10">23.64</text>
<line x1="68.39583333333333" y1="247.9113530326594" x2="68.39583333333333" y2="307.64555351336065" stroke="#26a69a" stroke-width="1"/>
<rect x="66.01875" y="253.1679626749611" width="4.754166666666666" height="44.76082756020551" fill="#26a69a" stroke="#26a69a" rx="0.5"/>
<rect x="66.01875" y="428.72996767129837" width="4.754166666666666" height="62.870032328701654" fill="#26a69a" opacity="0.6"/>
<line x1="75.1875" y1="290.2828125736369" x2="75.1875" y2="307.9641359159244" stroke="#ef5350" stroke-width="1"/>
<rect x="72.81041666666667" y="301.11461426080405" width="4.754166666666666" height="2.389368019227959" fill="none" stroke="#ef5350" rx="0.5"/>
<rect x="72.81041666666667" y="460.47105956541066" width="4.754166666666666" height="31.128940434589367" fill="#ef5350" opacity="0.6"/>
<line x1="81.97916666666666" y1="299.6809934492672" x2="81.97916666666666" y2="326.2826240633395" stroke="#26a69a" stroke-width="1"/>
<rect x="79.60208333333333" y="304.778311890287" width="4.754166666666666" height="13.699043310240825" fill="#26a69a" stroke="#26a69a" rx="0.5"/>
<rect x="79.60208333333333" y="457.4544415984865" width="4.754166666666666" height="34.14555840151354" fill="#26a69a" opacity="0.6"/>
<line x1="88.77083333333333" y1="283.2739997172346" x2="88.77083333333333" y2="313.69861916207174" stroke="#ef5350" stroke-width="1"/>
<rect x="86.39375" y="289.0084829633819" width="4.754166666666666" height="20.548564965361265" fill="none" stroke="#ef5350" rx="0.5"/>
<rect x="86.39375" y="442.40583862408715" width="4.754166666666666" height="49.19416137591287" fill="#ef5350" opacity="0.6"/>
<line x1="95.5625" y1="287.41557095056316" x2="95.5625" y2="312.9021631556624" stroke="#26a69a" stroke-width="1"/>
<rect x="93.18541666666667" y="296.3358782223479" width="4.754166666666666" height="15.61053772562326" fill="#26a69a" stroke="#26a69a" rx="0.5"/>
<rect x="93.18541666666667" y="458.0147471266746" width="4.754166666666666" height="33.58525287332543" fill="#26a69a" opacity="0.6"/>
<line x1="102.35416666666667" y1="300.95532305952213" x2="102.35416666666667" y2="318.95522880437346" stroke="#ef5350" stroke-width="1"/>
<rect x="99.97708333333334" y="304.778311890287" width="4.754166666666666" height="7.645977661529798" fill="none" stroke="#ef5350" rx="0.5"/>
<rect x="99.97708333333334" y="462.9391557576675" width="4.754166666666666" height="28.66084424233253" fill="#ef5350" opacity="0.6"/>
<line x1="109.14583333333333" y1="285.0262029313351" x2="109.14583333333333" y2="301.2739054620859" stroke="#ef5350" stroke-width="1"/>
<rect x="106.76875" y="296.1765870210661" width="4.754166666666666" height="5.097318441019809" fill="none" stroke="#ef5350" rx="0.5"/>
<rect x="106.76875" y="465.1191575884568" width="4.754166666666666" height="26.48084241154322" fill="#ef5350" opacity="0.6"/>
<line x1="115.9375" y1="249.34497384419618" x2="115.9375" y2="296.97304302747534" stroke="#ef5350" stroke-width="1"/>
<rect x="113.56041666666667" y="249.34497384419618" width="4.754166666666666" height="46.672321975588005" fill="none" stroke="#ef5350" rx="0.5"/>
<rect x="113.56041666666667" y="434.98892256670723" width="4.754166666666666" height="56.61107743329279" fill="#ef5350" opacity="0.6"/>
<line x1="122.72916666666667" y1="210.95579433526558" x2="122.72916666666667" y2="243.13261699420337" stroke="#ef5350" stroke-width="1"/>
<rect x="120.35208333333334" y="223.22121683396963" width="4.754166666666666" height="18.15919694613305" fill="none" stroke="#ef5350" rx="0.5"/>
<rect x="120.35208333333334" y="415.5715433655398" width="4.754166666666666" height="76.02845663446021" fill="#ef5350" opacity="0.6"/>
<line x1="129.52083333333334" y1="210.79650313398375" x2="129.52083333333334" y2="237.39813374805595" stroke="#ef5350" stroke-width="1"/>
<rect x="127.14375000000001" y="223.8583816390971" width="4.754166666666666" height="9.079598473066596" fill="none" stroke="#ef5350" rx="0.5"/>
<rect x="127.14375000000001" y="434.47700827566797" width="4.754166666666666" height="57.12299172433205" fill="#ef5350" opacity="0.6"/>
<line x1="136.31250000000003" y1="169.85866440454313" x2="136.31250000000003" y2="216.84956878269475" stroke="#ef5350" stroke-width="1"/>
<rect x="133.9354166666667" y="178.93826287760976" width="4.754166666666666" height="29.150289834582168" fill="none" stroke="#ef5350" rx="0.5"/>
<rect x="133.9354166666667" y="405.58758925585187" width="4.754166666666666" height="86.01241074414816" fill="#ef5350" opacity="0.6"/>
<line x1="143.10416666666669" y1="194.07092699938732" x2="143.10416666666669" y2="237.39813374805595" stroke="#26a69a" stroke-width="1"/>
<rect x="140.72708333333335" y="194.07092699938732" width="4.754166666666666" height="32.176822658937795" fill="#26a69a" stroke="#26a69a" rx="0.5"/>
<rect x="140.72708333333335" y="420.1490738896371" width="4.754166666666666" height="71.4509261103629" fill="#26a69a" opacity="0.6"/>
<line x1="149.89583333333334" y1="210.3186295301381" x2="149.89583333333334" y2="251.5750506621424" stroke="#ef5350" stroke-width="1"/>
<rect x="147.51875" y="222.74334323012397" width="4.754166666666666" height="22.77864178330745" fill="none" stroke="#ef5350" rx="0.5"/>
<rect x="147.51875" y="439.40327362308733" width="4.754166666666666" height="52.19672637691269" fill="#ef5350" opacity="0.6"/>
<line x1="156.68750000000003" y1="211.59295914039305" x2="156.68750000000003" y2="233.57514491729117" stroke="#ef5350" stroke-width="1"/>
<rect x="154.3104166666667" y="227.20349686601637" width="4.754166666666666" height="4.77873603845606" fill="none" stroke="#ef5350" rx="0.5"/>
<rect x="154.3104166666667" y="453.3498624231744" width="4.754166666666666" height="38.25013757682564" fill="#ef5350" opacity="0.6"/>
<line x1="163.47916666666669" y1="202.1947782647628" x2="163.47916666666669" y2="238.03529855318354" stroke="#ef5350" stroke-width="1"/>
<rect x="161.10208333333335" y="210.0000471275743" width="4.754166666666666" height="5.0973184410198655" fill="none" stroke="#ef5350" rx="0.5"/>
<rect x="161.10208333333335" y="430.55436405274077" width="4.754166666666666" height="61.04563594725926" fill="#ef5350" opacity="0.6"/>
<line x1="170.27083333333334" y1="188.49573495452196" x2="170.27083333333334" y2="219.7168104057684" stroke="#26a69a" stroke-width="1"/>
<rect x="167.89375" y="202.35406946604462" width="4.754166666666666" height="5.575192044865474" fill="#26a69a" stroke="#26a69a" rx="0.5"/>
<rect x="167.89375" y="427.93043159640666" width="4.754166666666666" height="63.66956840359336" fill="#26a69a" opacity="0.6"/>
<line x1="177.06250000000003" y1="210.3186295301381" x2="177.06250000000003" y2="236.28309533908296" stroke="#26a69a" stroke-width="1"/>
<rect x="174.6854166666667" y="219.23893680192288" width="4.754166666666666" height="11.150384089730835" fill="#26a69a" stroke="#26a69a" rx="0.5"/>
<rect x="174.6854166666667" y="445.57199752689877" width="4.754166666666666" height="46.02800247310125" fill="#26a69a" opacity="0.6"/>
<line x1="183.85416666666669" y1="224.3362552429427" x2="183.85416666666669" y2="248.07064423394127" stroke="#26a69a" stroke-width="1"/>
<rect x="181.47708333333335" y="230.70790329421752" width="4.754166666666666" height="12.424713699985858" fill="#26a69a" stroke="#26a69a" rx="0.5"/>
<rect x="181.47708333333335" y="453.37804620273687" width="4.754166666666666" height="38.221953797263154" fill="#26a69a" opacity="0.6"/>
<line x1="190.64583333333334" y1="232.46010650831803" x2="190.64583333333334" y2="254.12370988265238" stroke="#ef5350" stroke-width="1"/>
<rect x="188.26875" y="242.65474339035774" width="4.754166666666666" height="8.442433667939127" fill="none" stroke="#ef5350" rx="0.5"/>
<rect x="188.26875" y="463.7515415506254" width="4.754166666666666" height="27.84845844937462" fill="#ef5350" opacity="0.6"/>
<line x1="197.43750000000003" y1="230.86719449549932" x2="197.43750000000003" y2="252.6900890711155" stroke="#26a69a" stroke-width="1"/>
<rect x="195.0604166666667" y="235.96451293651918" width="4.754166666666666" height="11.15038408973092" fill="#26a69a" stroke="#26a69a" rx="0.5"/>
<rect x="195.0604166666667" y="455.08718468317176" width="4.754166666666666" height="36.51281531682827" fill="#26a69a" opacity="0.6"/>
<line x1="204.22916666666669" y1="230.86719449549932" x2="204.22916666666669" y2="257.46882510957164" stroke="#ef5350" stroke-width="1"/>
<rect x="201.85208333333335" y="242.01757858523027" width="4.754166666666666" height="5.097318441019837" fill="none" stroke="#ef5350" rx="0.5"/>
<rect x="201.85208333333335" y="447.599177189118" width="4.754166666666666" height="44.00082281088203" fill="#ef5350" opacity="0.6"/>
<line x1="211.02083333333334" y1="243.45119939676704" x2="211.02083333333334" y2="270.37141241340305" stroke="#26a69a" stroke-width="1"/>
<rect x="208.64375" y="252.3715066685518" width="4.754166666666666" height="12.106131297422138" fill="#26a69a" stroke="#26a69a" rx="0.5"/>
<rect x="208.64375" y="450.7343078021285" width="4.754166666666666" height="40.86569219787151" fill="#26a69a" opacity="0.6"/>
<line x1="217.81250000000003" y1="237.07955134549226" x2="217.81250000000003" y2="271.48645082237624" stroke="#ef5350" stroke-width="1"/>
<rect x="215.4354166666667" y="250.77859465573306" width="4.754166666666666" height="19.27423535510627" fill="none" stroke="#ef5350" rx="0.5"/>
<rect x="215.4354166666667" y="453.6651811961135" width="4.754166666666666" height="37.934818803886515" fill="#ef5350" opacity="0.6"/>
<line x1="224.60416666666669" y1="241.85828738394835" x2="224.60416666666669" y2="262.7254347518733" stroke="#ef5350" stroke-width="1"/>
<rect x="222.22708333333335" y="257.78740751213536" width="4.754166666666666" height="1.592912012818715" fill="none" stroke="#ef5350" rx="0.5"/>
<rect x="222.22708333333335" y="464.41818221053643" width="4.754166666666666" height="27.181817789463594" fill="#ef5350" opacity="0.6"/>
<line x1="231.39583333333334" y1="244.725529007022" x2="231.39583333333334" y2="269.25637400443" stroke="#ef5350" stroke-width="1"/>
<rect x="229.01875" y="254.2830010839342" width="4.754166666666666" height="11.787548894858446" fill="none" stroke="#ef5350" rx="0.5"/>
<rect x="229.01875" y="467.81014729018943" width="4.754166666666666" height="23.78985270981059" fill="#ef5350" opacity="0.6"/>
<line x1="238.18750000000003" y1="247.9113530326594" x2="238.18750000000003" y2="281.521796503134" stroke="#26a69a" stroke-width="1"/>
<rect x="235.8104166666667" y="250.93788585701492" width="4.754166666666666" height="26.92021301663607" fill="#26a69a" stroke="#26a69a" rx="0.5"/>
<rect x="235.8104166666667" y="463.5446998521064" width="4.754166666666666" height="28.055300147893604" fill="#26a69a" opacity="0.6"/>
<line x1="244.97916666666669" y1="265.43338517366516" x2="244.97916666666669" y2="280.8846316980065" stroke="#ef5350" stroke-width="1"/>
<rect x="242.60208333333335" y="270.05283001083933" width="4.754166666666666" height="8.761016070502933" fill="none" stroke="#ef5350" rx="0.5"/>
<rect x="242.60208333333335" y="473.57052052686635" width="4.754166666666666" height="18.029479473133676" fill="#ef5350" opacity="0.6"/>
<line x1="251.77083333333334" y1="260.65464913520907" x2="251.77083333333334" y2="276.4244780621142" stroke="#ef5350" stroke-width="1"/>
<rect x="249.39375" y="268.3006267967388" width="4.754166666666666" height="1.7522032141005184" fill="none" stroke="#ef5350" rx="0.5"/>
<rect x="249.39375" y="475.8415906159505" width="4.754166666666666" height="15.758409384049514" fill="#ef5350" opacity="0.6"/>
<line x1="258.5625" y1="262.08826994674587" x2="258.5625" y2="271.64574202365804" stroke="#ef5350" stroke-width="1"/>
<rect x="256.18541666666664" y="262.08826994674587" width="4.754166666666666" height="7.964560064093462" fill="none" stroke="#ef5350" rx="0.5"/>
<rect x="256.18541666666664" y="471.370779293832" width="4.754166666666666" height="20.229220706168007" fill="#ef5350" opacity="0.6"/>
<line x1="265.3541666666667" y1="255.71662189547104" x2="265.3541666666667" y2="276.4244780621142" stroke="#26a69a" stroke-width="1"/>
<rect x="262.9770833333333" y="259.3803195249541" width="4.754166666666666" height="11.628257693576472" fill="#26a69a" stroke="#26a69a" rx="0.5"/>
<rect x="262.9770833333333" y="469.66192313249184" width="4.754166666666666" height="21.938076867508187" fill="#26a69a" opacity="0.6"/>
<line x1="272.1458333333333" y1="271.00857721853055" x2="272.1458333333333" y2="313.5393279607899" stroke="#26a69a" stroke-width="1"/>
<rect x="269.76874999999995" y="271.3271596210943" width="4.754166666666666" height="26.28304821150857" fill="#26a69a" stroke="#26a69a" rx="0.5"/>
<rect x="269.76874999999995" y="457.79638751973215" width="4.754166666666666" height="33.80361248026787" fill="#26a69a" opacity="0.6"/>
<line x1="278.9375" y1="294.5836750082473" x2="278.9375" y2="306.5305151043876" stroke="#26a69a" stroke-width="1"/>
<rect x="276.56041666666664" y="300.31815825439463" width="4.754166666666666" height="1" fill="#26a69a" stroke="#26a69a" rx="0.5"/>
<rect x="276.56041666666664" y="473.4652251951046" width="4.754166666666666" height="18.134774804895414" fill="#26a69a" opacity="0.6"/>
<line x1="285.7291666666667" y1="297.13233422875726" x2="285.7291666666667" y2="310.5127951364343" stroke="#26a69a" stroke-width="1"/>
<rect x="283.3520833333333" y="303.98185588387764" width="4.754166666666666" height="3.982280032046731" fill="#26a69a" stroke="#26a69a" rx="0.5"/>
<rect x="283.3520833333333" y="476.28473985718153" width="4.754166666666666" height="15.315260142818488" fill="#26a69a" opacity="0.6"/>
<line x1="292.5208333333333" y1="304.14114708515956" x2="292.5208333333333" y2="320.86672321975584" stroke="#ef5350" stroke-width="1"/>
<rect x="290.14374999999995" y="305.7340590979782" width="4.754166666666666" height="3.6636976294830106" fill="none" stroke="#ef5350" rx="0.5"/>
<rect x="290.14374999999995" y="473.7163422155487" width="4.754166666666666" height="17.883657784451316" fill="#ef5350" opacity="0.6"/>
<line x1="299.3125" y1="298.0880814364484" x2="299.3125" y2="315.29153117489045" stroke="#26a69a" stroke-width="1"/>
<rect x="296.93541666666664" y="310.6720863377162" width="4.754166666666666" height="4.619444837174228" fill="#26a69a" stroke="#26a69a" rx="0.5"/>
<rect x="296.93541666666664" y="478.4501250529156" width="4.754166666666666" height="13.149874947084413" fill="#26a69a" opacity="0.6"/>
<line x1="306.1041666666667" y1="302.54823507234084" x2="306.1041666666667" y2="316.0879871812998" stroke="#ef5350" stroke-width="1"/>
<rect x="303.7270833333333" y="303.503982280032" width="4.754166666666666" height="8.283142466657296" fill="none" stroke="#ef5350" rx="0.5"/>
<rect x="303.7270833333333" y="476.03718994173005" width="4.754166666666666" height="15.562810058269974" fill="#ef5350" opacity="0.6"/>
<line x1="312.8958333333333" y1="302.0703614684952" x2="312.8958333333333" y2="314.1764927659174" stroke="#ef5350" stroke-width="1"/>
<rect x="310.51874999999995" y="305.5747678966964" width="4.754166666666666" height="1.433620811536798" fill="none" stroke="#ef5350" rx="0.5"/>
<rect x="310.51874999999995" y="480.05536073890863" width="4.754166666666666" height="11.54463926109139" fill="#ef5350" opacity="0.6"/>
<line x1="319.6875" y1="305.89335029926013" x2="319.6875" y2="322.45963523257456" stroke="#26a69a" stroke-width="1"/>
<rect x="317.31041666666664" y="308.12342711720635" width="4.754166666666666" height="12.106131297422053" fill="#26a69a" stroke="#26a69a" rx="0.5"/>
<rect x="317.31041666666664" y="479.5939260064687" width="4.754166666666666" height="12.006073993531345" fill="#26a69a" opacity="0.6"/>
<line x1="326.4791666666667" y1="281.2032141005703" x2="326.4791666666667" y2="325.4861680569301" stroke="#ef5350" stroke-width="1"/>
<rect x="324.1020833333333" y="293.3093453979924" width="4.754166666666666" height="30.74320184740094" fill="none" stroke="#ef5350" rx="0.5"/>
<rect x="324.1020833333333" y="455.8248033998913" width="4.754166666666666" height="35.7751966001087" fill="#ef5350" opacity="0.6"/>
<line x1="333.2708333333333" y1="287.574862151845" x2="333.2708333333333" y2="296.81375182619354" stroke="#ef5350" stroke-width="1"/>
<rect x="330.89374999999995" y="292.9907629954286" width="4.754166666666666" height="1" fill="none" stroke="#ef5350" rx="0.5"/>
<rect x="330.89374999999995" y="472.0450697029447" width="4.754166666666666" height="19.554930297055307" fill="#ef5350" opacity="0.6"/>
<line x1="340.0625" y1="295.53942221593854" x2="340.0625" y2="307.8048447146425" stroke="#26a69a" stroke-width="1"/>
<rect x="337.68541666666664" y="295.69871341722046" width="4.754166666666666" height="10.831801687167115" fill="#26a69a" stroke="#26a69a" rx="0.5"/>
<rect x="337.68541666666664" y="479.2313527022096" width="4.754166666666666" height="12.368647297790403" fill="#26a69a" opacity="0.6"/>
<line x1="346.8541666666667" y1="279.2917196851878" x2="346.8541666666667" y2="309.71633913002495" stroke="#ef5350" stroke-width="1"/>
<rect x="344.4770833333333" y="286.14124134030817" width="4.754166666666666" height="20.229982562797545" fill="none" stroke="#ef5350" rx="0.5"/>
<rect x="344.4770833333333" y="463.15004747542014" width="4.754166666666666" height="28.449952524579885" fill="#ef5350" opacity="0.6"/>
<line x1="353.6458333333333" y1="288.2120269569726" x2="353.6458333333333" y2="304.778311890287" stroke="#ef5350" stroke-width="1"/>
<rect x="351.26874999999995" y="290.6013949762006" width="4.754166666666666" height="5.575192044865503" fill="none" stroke="#ef5350" rx="0.5"/>
<rect x="351.26874999999995" y="473.83754173832875" width="4.754166666666666" height="17.76245826167127" fill="#ef5350" opacity="0.6"/>
<line x1="360.4375" y1="273.7165276403224" x2="360.4375" y2="295.3801310146567" stroke="#ef5350" stroke-width="1"/>
<rect x="358.06041666666664" y="281.521796503134" width="4.754166666666666" height="13.858334511522685" fill="none" stroke="#ef5350" rx="0.5"/>
<rect x="358.06041666666664" y="472.52529545220386" width="4.754166666666666" height="19.07470454779616" fill="#ef5350" opacity="0.6"/>
<line x1="367.2291666666667" y1="274.194401244168" x2="367.2291666666667" y2="286.9376973467176" stroke="#26a69a" stroke-width="1"/>
<rect x="364.8520833333333" y="274.8315660492955" width="4.754166666666666" height="7.964560064093519" fill="#26a69a" stroke="#26a69a" rx="0.5"/>
<rect x="364.8520833333333" y="476.5000960282623" width="4.754166666666666" height="15.099903971737717" fill="#26a69a" opacity="0.6"/>
<line x1="374.0208333333333" y1="249.50426504547815" x2="374.0208333333333" y2="282.796126113389" stroke="#ef5350" stroke-width="1"/>
<rect x="371.64374999999995" y="261.2918139403365" width="4.754166666666666" height="21.026438569206846" fill="none" stroke="#ef5350" rx="0.5"/>
<rect x="371.64374999999995" y="456.7389161275401" width="4.754166666666666" height="34.861083872459915" fill="#ef5350" opacity="0.6"/>
<line x1="380.8125" y1="251.41575946086056" x2="380.8125" y2="277.858098873651" stroke="#26a69a" stroke-width="1"/>
<rect x="378.43541666666664" y="251.41575946086056" width="4.754166666666666" height="20.070691361515685" fill="#26a69a" stroke="#26a69a" rx="0.5"/>
<rect x="378.43541666666664" y="462.1433625104087" width="4.754166666666666" height="29.456637489591344" fill="#26a69a" opacity="0.6"/>
<line x1="387.6041666666667" y1="274.8315660492955" x2="387.6041666666667" y2="282.796126113389" stroke="#ef5350" stroke-width="1"/>
<rect x="385.2270833333333" y="278.97313728262407" width="4.754166666666666" height="2.867241623073653" fill="none" stroke="#ef5350" rx="0.5"/>
<rect x="385.2270833333333" y="477.15150728501425" width="4.754166666666666" height="14.448492714985775" fill="#ef5350" opacity="0.6"/>
<line x1="394.3958333333333" y1="285.185494132617" x2="394.3958333333333" y2="302.2296526697771" stroke="#26a69a" stroke-width="1"/>
<rect x="392.01874999999995" y="293.15005419671047" width="4.754166666666666" height="6.690230453838581" fill="#26a69a" stroke="#26a69a" rx="0.5"/>
<rect x="392.01874999999995" y="472.41873388376996" width="4.754166666666666" height="19.181266116230063" fill="#26a69a" opacity="0.6"/>
<line x1="401.1875" y1="289.6456477685094" x2="401.1875" y2="313.85791036335365" stroke="#26a69a" stroke-width="1"/>
<rect x="398.81041666666664" y="301.5924878646496" width="4.754166666666666" height="10.991092888448975" fill="#26a69a" stroke="#26a69a" rx="0.5"/>
<rect x="398.81041666666664" y="475.05942847107167" width="4.754166666666666" height="16.540571528928353" fill="#26a69a" opacity="0.6"/>
<line x1="407.9791666666667" y1="301.7517790659315" x2="407.9791666666667" y2="320.86672321975584" stroke="#ef5350" stroke-width="1"/>
<rect x="405.6020833333333" y="309.0791743248975" width="4.754166666666666" height="11.787548894858332" fill="none" stroke="#ef5350" rx="0.5"/>
<rect x="405.6020833333333" y="481.13723755087887" width="4.754166666666666" height="10.462762449121158" fill="#ef5350" opacity="0.6"/>
<line x1="414.7708333333333" y1="291.07926858004623" x2="414.7708333333333" y2="310.5127951364343" stroke="#26a69a" stroke-width="1"/>
<rect x="412.39374999999995" y="302.0703614684952" width="4.754166666666666" height="5.256609642301726" fill="#26a69a" stroke="#26a69a" rx="0.5"/>
<rect x="412.39374999999995" y="477.5639916334483" width="4.754166666666666" height="14.036008366551698" fill="#26a69a" opacity="0.6"/>
<line x1="421.5625" y1="304.778311890287" x2="421.5625" y2="315.13223997360853" stroke="#ef5350" stroke-width="1"/>
<rect x="419.18541666666664" y="311.1499599415618" width="4.754166666666666" height="1.7522032141005752" fill="none" stroke="#ef5350" rx="0.5"/>
<rect x="419.18541666666664" y="482.9112128402622" width="4.754166666666666" height="8.688787159737842" fill="#ef5350" opacity="0.6"/>
<line x1="428.3541666666667" y1="303.3446910787502" x2="428.3541666666667" y2="328.9905744851313" stroke="#ef5350" stroke-width="1"/>
<rect x="425.9770833333333" y="305.89335029926013" width="4.754166666666666" height="14.654790517931986" fill="none" stroke="#ef5350" rx="0.5"/>
<rect x="425.9770833333333" y="476.80462142564926" width="4.754166666666666" height="14.795378574350764" fill="#ef5350" opacity="0.6"/>
<line x1="435.1458333333333" y1="286.7784061454357" x2="435.1458333333333" y2="306.21193270182386" stroke="#ef5350" stroke-width="1"/>
<rect x="432.76874999999995" y="302.2296526697771" width="4.754166666666666" height="1.1150384089730778" fill="none" stroke="#ef5350" rx="0.5"/>
<rect x="432.76874999999995" y="472.966236531728" width="4.754166666666666" height="18.633763468272036" fill="#ef5350" opacity="0.6"/>
<line x1="441.9375" y1="278.3359724774966" x2="441.9375" y2="307.4862623120788" stroke="#ef5350" stroke-width="1"/>
<rect x="439.56041666666664" y="278.81384608134226" width="4.754166666666666" height="23.41580658843486" fill="none" stroke="#ef5350" rx="0.5"/>
<rect x="439.56041666666664" y="456.2116655138676" width="4.754166666666666" height="35.38833448613241" fill="#ef5350" opacity="0.6"/>
<line x1="448.7291666666667" y1="276.4244780621142" x2="448.7291666666667" y2="291.5571421838918" stroke="#ef5350" stroke-width="1"/>
<rect x="446.3520833333333" y="283.11470851595277" width="4.754166666666666" height="1" fill="none" stroke="#ef5350" rx="0.5"/>
<rect x="446.3520833333333" y="469.57628224883115" width="4.754166666666666" height="22.023717751168874" fill="#ef5350" opacity="0.6"/>
<line x1="455.5208333333333" y1="260.65464913520907" x2="455.5208333333333" y2="287.2562797492813" stroke="#ef5350" stroke-width="1"/>
<rect x="453.14374999999995" y="275.6280220557048" width="4.754166666666666" height="11.468966492294669" fill="none" stroke="#ef5350" rx="0.5"/>
<rect x="453.14374999999995" y="461.56547179741597" width="4.754166666666666" height="30.034528202584056" fill="#ef5350" opacity="0.6"/>
<line x1="462.3125" y1="269.4156652057119" x2="462.3125" y2="289.0084829633819" stroke="#ef5350" stroke-width="1"/>
<rect x="459.93541666666664" y="280.40675809416086" width="4.754166666666666" height="5.415900843583586" fill="none" stroke="#ef5350" rx="0.5"/>
<rect x="459.93541666666664" y="460.12563504653167" width="4.754166666666666" height="31.474364953468353" fill="#ef5350" opacity="0.6"/>
<line x1="469.1041666666667" y1="284.38903812620765" x2="469.1041666666667" y2="319.1145200056553" stroke="#26a69a" stroke-width="1"/>
<rect x="466.7270833333333" y="291.39785098260995" width="4.754166666666666" height="18.955652952542493" fill="#26a69a" stroke="#26a69a" rx="0.5"/>
<rect x="466.7270833333333" y="464.48393994824823" width="4.754166666666666" height="27.116060051751788" fill="#26a69a" opacity="0.6"/>
<line x1="475.8958333333333" y1="306.6898063056695" x2="475.8958333333333" y2="338.3887553607616" stroke="#26a69a" stroke-width="1"/>
<rect x="473.51874999999995" y="310.1942127338706" width="4.754166666666666" height="21.822894575616203" fill="#26a69a" stroke="#26a69a" rx="0.5"/>
<rect x="473.51874999999995" y="466.210635510786" width="4.754166666666666" height="25.389364489214017" fill="#26a69a" opacity="0.6"/>
<line x1="482.6875" y1="336.7958433479429" x2="482.6875" y2="363.55676516329703" stroke="#26a69a" stroke-width="1"/>
<rect x="480.31041666666664" y="338.5480465620435" width="4.754166666666666" height="19.274235355106214" fill="#26a69a" stroke="#26a69a" rx="0.5"/>
<rect x="480.31041666666664" y="468.7734491132984" width="4.754166666666666" height="22.826550886701625" fill="#26a69a" opacity="0.6"/>
<line x1="489.4791666666667" y1="326.2826240633395" x2="489.4791666666667" y2="358.30015552099536" stroke="#ef5350" stroke-width="1"/>
<rect x="487.1020833333333" y="350.6541778594656" width="4.754166666666666" height="4.938027239737892" fill="none" stroke="#ef5350" rx="0.5"/>
<rect x="487.1020833333333" y="461.154406150886" width="4.754166666666666" height="30.445593849114005" fill="#ef5350" opacity="0.6"/>
<line x1="496.2708333333333" y1="339.8223761722984" x2="496.2708333333333" y2="360.0523587350959" stroke="#26a69a" stroke-width="1"/>
<rect x="493.89374999999995" y="357.34440831330414" width="4.754166666666666" height="1.1150384089730778" fill="#26a69a" stroke="#26a69a" rx="0.5"/>
<rect x="493.89374999999995" y="473.1594484199452" width="4.754166666666666" height="18.44055158005483" fill="#26a69a" opacity="0.6"/>
<line x1="503.0625" y1="343.6453650030633" x2="503.0625" y2="372.6363636363636" stroke="#26a69a" stroke-width="1"/>
<rect x="500.68541666666664" y="349.0612658466469" width="4.754166666666666" height="1.433620811536855" fill="#26a69a" stroke="#26a69a" rx="0.5"/>
<rect x="500.68541666666664" y="471.92348384877187" width="4.754166666666666" height="19.676516151228157" fill="#26a69a" opacity="0.6"/>
<line x1="509.8541666666667" y1="342.3710353928083" x2="509.8541666666667" y2="354.7957490927942" stroke="#ef5350" stroke-width="1"/>
<rect x="507.4770833333333" y="343.32678260049954" width="4.754166666666666" height="11.150384089730949" fill="none" stroke="#ef5350" rx="0.5"/>
<rect x="507.4770833333333" y="474.1863095096458" width="4.754166666666666" height="17.413690490354213" fill="#ef5350" opacity="0.6"/>
<line x1="516.6458333333334" y1="306.84909750695135" x2="516.6458333333334" y2="344.60111221075454" stroke="#ef5350" stroke-width="1"/>
<rect x="514.2687500000001" y="326.6012064659032" width="4.754166666666666" height="16.406993732032618" fill="none" stroke="#ef5350" rx="0.5"/>
<rect x="514.2687500000001" y="455.61877441858337" width="4.754166666666666" height="35.98122558141665" fill="#ef5350" opacity="0.6"/>
<line x1="523.4375000000001" y1="305.25618549413264" x2="523.4375000000001" y2="337.91088175691596" stroke="#ef5350" stroke-width="1"/>
<rect x="521.0604166666668" y="313.22074555822616" width="4.754166666666666" height="23.256515387153" fill="none" stroke="#ef5350" rx="0.5"/>
<rect x="521.0604166666668" y="459.53436809359124" width="4.754166666666666" height="32.06563190640878" fill="#ef5350" opacity="0.6"/>
<line x1="530.2291666666667" y1="300.6367406569584" x2="530.2291666666667" y2="322.45963523257456" stroke="#ef5350" stroke-width="1"/>
<rect x="527.8520833333334" y="307.32697111079693" width="4.754166666666666" height="6.212356849992943" fill="none" stroke="#ef5350" rx="0.5"/>
<rect x="527.8520833333334" y="465.0448110836846" width="4.754166666666666" height="26.555188916315444" fill="#ef5350" opacity="0.6"/>
<line x1="537.0208333333334" y1="306.84909750695135" x2="537.0208333333334" y2="323.8932560441114" stroke="#26a69a" stroke-width="1"/>
<rect x="534.6437500000001" y="313.5393279607899" width="4.754166666666666" height="10.194636882039674" fill="#26a69a" stroke="#26a69a" rx="0.5"/>
<rect x="534.6437500000001" y="473.9313217458234" width="4.754166666666666" height="17.668678254176598" fill="#26a69a" opacity="0.6"/>
<line x1="543.8125000000001" y1="308.91988312361565" x2="543.8125000000001" y2="336.15867854281544" stroke="#26a69a" stroke-width="1"/>
<rect x="541.4354166666668" y="318.4773552005278" width="4.754166666666666" height="1.592912012818715" fill="#26a69a" stroke="#26a69a" rx="0.5"/>
<rect x="541.4354166666668" y="470.6163719585409" width="4.754166666666666" height="20.9836280414591" fill="#26a69a" opacity="0.6"/>
<line x1="550.6041666666667" y1="310.35350393515245" x2="550.6041666666667" y2="326.919788868467" stroke="#ef5350" stroke-width="1"/>
<rect x="548.2270833333334" y="324.5304208492389" width="4.754166666666666" height="1" fill="none" stroke="#ef5350" rx="0.5"/>
<rect x="548.2270833333334" y="474.8434931259212" width="4.754166666666666" height="16.75650687407881" fill="#ef5350" opacity="0.6"/>
<line x1="557.3958333333334" y1="313.69861916207174" x2="557.3958333333334" y2="341.41528818511716" stroke="#26a69a" stroke-width="1"/>
<rect x="555.0187500000001" y="318.4773552005278" width="4.754166666666666" height="16.884867335878198" fill="#26a69a" stroke="#26a69a" rx="0.5"/>
<rect x="555.0187500000001" y="477.2972243153595" width="4.754166666666666" height="14.302775684640551" fill="#26a69a" opacity="0.6"/>
<line x1="564.1875000000001" y1="323.25609123898397" x2="564.1875000000001" y2="335.84009614025166" stroke="#26a69a" stroke-width="1"/>
<rect x="561.8104166666668" y="327.87553607615814" width="4.754166666666666" height="2.5486592205099328" fill="#26a69a" stroke="#26a69a" rx="0.5"/>
<rect x="561.8104166666668" y="480.03986387555454" width="4.754166666666666" height="11.560136124445478" fill="#26a69a" opacity="0.6"/>
<line x1="570.9791666666667" y1="313.22074555822616" x2="570.9791666666667" y2="330.2649040953862" stroke="#ef5350" stroke-width="1"/>
<rect x="568.6020833333334" y="317.9994815966822" width="4.754166666666666" height="6.05306564871114" fill="none" stroke="#ef5350" rx="0.5"/>
<rect x="568.6020833333334" y="472.1039461549862" width="4.754166666666666" height="19.49605384501382" fill="#ef5350" opacity="0.6"/>
<line x1="577.7708333333334" y1="318.95522880437346" x2="577.7708333333334" y2="343.6453650030633" stroke="#26a69a" stroke-width="1"/>
<rect x="575.3937500000001" y="321.3445968236015" width="4.754166666666666" height="7.327395258966078" fill="#26a69a" stroke="#26a69a" rx="0.5"/>
<rect x="575.3937500000001" y="470.633240039924" width="4.754166666666666" height="20.966759960076047" fill="#26a69a" opacity="0.6"/>
<line x1="584.5625000000001" y1="307.1676799095151" x2="584.5625000000001" y2="328.67199208256756" stroke="#ef5350" stroke-width="1"/>
<rect x="582.1854166666668" y="316.72515198642725" width="4.754166666666666" height="7.645977661529798" fill="none" stroke="#ef5350" rx="0.5"/>
<rect x="582.1854166666668" y="461.1478908463763" width="4.754166666666666" height="30.452109153623724" fill="#ef5350" opacity="0.6"/>
<line x1="591.3541666666667" y1="305.5747678966964" x2="591.3541666666667" y2="323.8932560441114" stroke="#ef5350" stroke-width="1"/>
<rect x="588.9770833333334" y="310.1942127338706" width="4.754166666666666" height="12.26542249870397" fill="none" stroke="#ef5350" rx="0.5"/>
<rect x="588.9770833333334" y="465.8490390176741" width="4.754166666666666" height="25.75096098232592" fill="#ef5350" opacity="0.6"/>
<line x1="598.1458333333334" y1="275.1501484518592" x2="598.1458333333334" y2="308.12342711720635" stroke="#ef5350" stroke-width="1"/>
<rect x="595.7687500000001" y="275.1501484518592" width="4.754166666666666" height="28.513125029454727" fill="none" stroke="#ef5350" rx="0.5"/>
<rect x="595.7687500000001" y="451.46112119157226" width="4.754166666666666" height="40.13887880842776" fill="#ef5350" opacity="0.6"/>
<line x1="604.9375000000001" y1="271.80503322493996" x2="604.9375000000001" y2="293.787219001838" stroke="#26a69a" stroke-width="1"/>
<rect x="602.5604166666668" y="275.1501484518592" width="4.754166666666666" height="13.380460907677104" fill="#26a69a" stroke="#26a69a" rx="0.5"/>
<rect x="602.5604166666668" y="457.37404978266323" width="4.754166666666666" height="34.22595021733679" fill="#26a69a" opacity="0.6"/>
<line x1="611.7291666666667" y1="277.22093406852355" x2="611.7291666666667" y2="296.4951694236298" stroke="#26a69a" stroke-width="1"/>
<rect x="609.3520833333334" y="284.7076205287714" width="4.754166666666666" height="2.867241623073653" fill="#26a69a" stroke="#26a69a" rx="0.5"/>
<rect x="609.3520833333334" y="460.01858927177847" width="4.754166666666666" height="31.581410728221556" fill="#26a69a" opacity="0.6"/>
<line x1="618.5208333333334" y1="279.7695932890334" x2="618.5208333333334" y2="296.4951694236298" stroke="#26a69a" stroke-width="1"/>
<rect x="616.1437500000001" y="283.5925821197983" width="4.754166666666666" height="5.415900843583586" fill="#26a69a" stroke="#26a69a" rx="0.5"/>
<rect x="616.1437500000001" y="468.7990593960325" width="4.754166666666666" height="22.800940603967547" fill="#26a69a" opacity="0.6"/>
<line x1="625.3125000000001" y1="281.521796503134" x2="625.3125000000001" y2="292.3535981903011" stroke="#ef5350" stroke-width="1"/>
<rect x="622.9354166666668" y="287.2562797492813" width="4.754166666666666" height="1.9114944153824922" fill="none" stroke="#ef5350" rx="0.5"/>
<rect x="622.9354166666668" y="470.27140322026" width="4.754166666666666" height="21.328596779739996" fill="#ef5350" opacity="0.6"/>
<line x1="632.1041666666667" y1="251.41575946086056" x2="632.1041666666667" y2="296.3358782223479" stroke="#ef5350" stroke-width="1"/>
<rect x="629.7270833333334" y="258.26528111598094" width="4.754166666666666" height="26.92021301663607" fill="none" stroke="#ef5350" rx="0.5"/>
<rect x="629.7270833333334" y="439.6975977397742" width="4.754166666666666" height="51.90240226022581" fill="#ef5350" opacity="0.6"/>
<line x1="638.8958333333334" y1="252.6900890711155" x2="638.8958333333334" y2="267.66346199161126" stroke="#ef5350" stroke-width="1"/>
<rect x="636.5187500000001" y="258.9024459211085" width="4.754166666666666" height="3.6636976294829537" fill="none" stroke="#ef5350" rx="0.5"/>
<rect x="636.5187500000001" y="458.5556472548419" width="4.754166666666666" height="33.04435274515811" fill="#ef5350" opacity="0.6"/>
<line x1="645.6875000000001" y1="259.53961072623594" x2="645.6875000000001" y2="292.0350157877374" stroke="#26a69a" stroke-width="1"/>
<rect x="643.3104166666668" y="262.08826994674587" width="4.754166666666666" height="26.44233941279043" fill="#26a69a" stroke="#26a69a" rx="0.5"/>
<rect x="643.3104166666668" y="451.954155312394" width="4.754166666666666" height="39.64584468760603" fill="#26a69a" opacity="0.6"/>
<line x1="652.4791666666667" y1="240.9025401762572" x2="652.4791666666667" y2="286.7784061454357" stroke="#ef5350" stroke-width="1"/>
<rect x="650.1020833333334" y="240.9025401762572" width="4.754166666666666" height="39.66350911918559" fill="none" stroke="#ef5350" rx="0.5"/>
<rect x="650.1020833333334" y="427.2507858460215" width="4.754166666666666" height="64.34921415397855" fill="#ef5350" opacity="0.6"/>
<line x1="659.2708333333334" y1="211.59295914039305" x2="659.2708333333334" y2="233.4158537160092" stroke="#ef5350" stroke-width="1"/>
<rect x="656.8937500000001" y="217.4867335878222" width="4.754166666666666" height="14.176916914086434" fill="none" stroke="#ef5350" rx="0.5"/>
<rect x="656.8937500000001" y="417.77958975446154" width="4.754166666666666" height="73.82041024553848" fill="#ef5350" opacity="0.6"/>
<line x1="666.0625000000001" y1="219.3982280032047" x2="666.0625000000001" y2="241.53970498138466" stroke="#26a69a" stroke-width="1"/>
<rect x="663.6854166666668" y="222.90263443140583" width="4.754166666666666" height="6.690230453838552" fill="#26a69a" stroke="#26a69a" rx="0.5"/>
<rect x="663.6854166666668" y="441.53096695853293" width="4.754166666666666" height="50.069033041467094" fill="#26a69a" opacity="0.6"/>
<line x1="672.8541666666667" y1="189.29219096093126" x2="672.8541666666667" y2="236.28309533908296" stroke="#ef5350" stroke-width="1"/>
<rect x="670.4770833333334" y="196.14171261605168" width="4.754166666666666" height="40.141382723031285" fill="none" stroke="#ef5350" rx="0.5"/>
<rect x="670.4770833333334" y="423.22436997459346" width="4.754166666666666" height="68.37563002540656" fill="#ef5350" opacity="0.6"/>
<line x1="679.6458333333334" y1="183.07983411093832" x2="679.6458333333334" y2="213.82303595833923" stroke="#ef5350" stroke-width="1"/>
<rect x="677.2687500000001" y="189.13289975964943" width="4.754166666666666" height="6.530939252556607" fill="none" stroke="#ef5350" rx="0.5"/>
<rect x="677.2687500000001" y="432.62649317870523" width="4.754166666666666" height="58.97350682129479" fill="#ef5350" opacity="0.6"/>
<line x1="686.4375000000001" y1="146.44285781610827" x2="686.4375000000001" y2="203.7876902775814" stroke="#ef5350" stroke-width="1"/>
<rect x="684.0604166666668" y="160.46048352891276" width="4.754166666666666" height="34.40689947688398" fill="none" stroke="#ef5350" rx="0.5"/>
<rect x="684.0604166666668" y="431.58123257189123" width="4.754166666666666" height="60.01876742810879" fill="#ef5350" opacity="0.6"/>
<line x1="693.2291666666667" y1="161.73481313916767" x2="693.2291666666667" y2="183.7169989160658" stroke="#ef5350" stroke-width="1"/>
<rect x="690.8520833333334" y="169.6993732032612" width="4.754166666666666" height="2.2300768179462125" fill="none" stroke="#ef5350" rx="0.5"/>
<rect x="690.8520833333334" y="444.1518368664259" width="4.754166666666666" height="47.4481631335741" fill="#ef5350" opacity="0.6"/>
<line x1="700.0208333333334" y1="157.9118243084029" x2="700.0208333333334" y2="211.43366793911122" stroke="#26a69a" stroke-width="1"/>
<rect x="697.6437500000001" y="177.50464206607285" width="4.754166666666666" height="32.49540506150146" fill="#26a69a" stroke="#26a69a" rx="0.5"/>
<rect x="697.6437500000001" y="433.3146928100385" width="4.754166666666666" height="58.28530718996154" fill="#26a69a" opacity="0.6"/>
<line x1="706.8125000000001" y1="188.97360855836746" x2="706.8125000000001" y2="216.21240397756728" stroke="#ef5350" stroke-width="1"/>
<rect x="704.4354166666668" y="202.35406946604462" width="4.754166666666666" height="8.283142466657182" fill="none" stroke="#ef5350" rx="0.5"/>
<rect x="704.4354166666668" y="450.93343030224054" width="4.754166666666666" height="40.666569697759485" fill="#ef5350" opacity="0.6"/>
<line x1="713.6041666666667" y1="193.27447099297802" x2="713.6041666666667" y2="228.95570008011694" stroke="#26a69a" stroke-width="1"/>
<rect x="711.2270833333334" y="202.1947782647628" width="4.754166666666666" height="18.477779348696856" fill="#26a69a" stroke="#26a69a" rx="0.5"/>
<rect x="711.2270833333334" y="450.36621926191515" width="4.754166666666666" height="41.233780738084874" fill="#26a69a" opacity="0.6"/>
<line x1="720.3958333333334" y1="216.53098638013105" x2="720.3958333333334" y2="227.6813704698619" stroke="#26a69a" stroke-width="1"/>
<rect x="718.0187500000001" y="220.67255761345965" width="4.754166666666666" height="1.274329610254938" fill="#26a69a" stroke="#26a69a" rx="0.5"/>
<rect x="718.0187500000001" y="464.76603260630526" width="4.754166666666666" height="26.833967393694763" fill="#26a69a" opacity="0.6"/>
<line x1="727.1875000000001" y1="211.75225034167488" x2="727.1875000000001" y2="239.15033696215662" stroke="#26a69a" stroke-width="1"/>
<rect x="724.8104166666668" y="222.74334323012397" width="4.754166666666666" height="16.406993732032646" fill="#26a69a" stroke="#26a69a" rx="0.5"/>
<rect x="724.8104166666668" y="460.4101894366496" width="4.754166666666666" height="31.18981056335042" fill="#26a69a" opacity="0.6"/>
<line x1="733.9791666666667" y1="186.58424053913944" x2="733.9791666666667" y2="207.9292615109101" stroke="#ef5350" stroke-width="1"/>
<rect x="731.6020833333334" y="186.58424053913944" width="4.754166666666666" height="21.34502097177065" fill="none" stroke="#ef5350" rx="0.5"/>
<rect x="731.6020833333334" y="441.73612184891357" width="4.754166666666666" height="49.86387815108645" fill="#ef5350" opacity="0.6"/>
<line x1="740.7708333333334" y1="135.29247372637732" x2="740.7708333333334" y2="174.6374004429992" stroke="#ef5350" stroke-width="1"/>
<rect x="738.3937500000001" y="165.71709317121443" width="4.754166666666666" height="8.920307271784765" fill="none" stroke="#ef5350" rx="0.5"/>
<rect x="738.3937500000001" y="398.0" width="4.754166666666666" height="93.60000000000002" fill="#ef5350" opacity="0.6"/>
<line x1="747.5625000000001" y1="162.5312691455771" x2="747.5625000000001" y2="193.43376219425986" stroke="#ef5350" stroke-width="1"/>
<rect x="745.1854166666668" y="175.2745652481267" width="4.754166666666666" height="2.548659220509961" fill="none" stroke="#ef5350" rx="0.5"/>
<rect x="745.1854166666668" y="434.8300848048856" width="4.754166666666666" height="56.769915195114436" fill="#ef5350" opacity="0.6"/>
<line x1="754.3541666666667" y1="116.33682077383483" x2="754.3541666666667" y2="184.67274612375704" stroke="#ef5350" stroke-width="1"/>
<rect x="751.9770833333334" y="116.33682077383483" width="4.754166666666666" height="66.74301333710349" fill="none" stroke="#ef5350" rx="0.5"/>
<rect x="751.9770833333334" y="424.898590363695" width="4.754166666666666" height="66.70140963630502" fill="#ef5350" opacity="0.6"/>
<line x1="761.1458333333334" y1="65.36363636363637" x2="761.1458333333334" y2="116.49611197511666" stroke="#26a69a" stroke-width="1"/>
<rect x="758.7687500000001" y="100.40770064564782" width="4.754166666666666" height="14.017625712804488" fill="#26a69a" stroke="#26a69a" rx="0.5"/>
<rect x="758.7687500000001" y="398.0238559635079" width="4.754166666666666" height="93.57614403649211" fill="#26a69a" opacity="0.6"/>
<line x1="767.9375000000001" y1="73.16890522644805" x2="767.9375000000001" y2="123.5049248315189" stroke="#ef5350" stroke-width="1"/>
<rect x="765.5604166666668" y="84.31928931617887" width="4.754166666666666" height="26.760921815354166" fill="none" stroke="#ef5350" rx="0.5"/>
<rect x="765.5604166666668" y="414.39292865597105" width="4.754166666666666" height="77.20707134402898" fill="#ef5350" opacity="0.6"/>
<line x1="774.7291666666667" y1="88.46086054950757" x2="774.7291666666667" y2="152.3366322635374" stroke="#26a69a" stroke-width="1"/>
<rect x="772.3520833333334" y="88.46086054950757" width="4.754166666666666" height="63.87577171402984" fill="#26a69a" stroke="#26a69a" rx="0.5"/>
<rect x="772.3520833333334" y="422.36151108342744" width="4.754166666666666" height="69.23848891657258" fill="#26a69a" opacity="0.6"/>
<line x1="781.5208333333334" y1="140.38979216739716" x2="781.5208333333334" y2="200.60186625194405" stroke="#26a69a" stroke-width="1"/>
<rect x="779.1437500000001" y="164.28347235967766" width="4.754166666666666" height="22.300768179461784" fill="#26a69a" stroke="#26a69a" rx="0.5"/>
<rect x="779.1437500000001" y="417.8653789040999" width="4.754166666666666" height="73.73462109590014" fill="#26a69a" opacity="0.6"/>
<line x1="788.3125000000001" y1="170.65512041095246" x2="788.3125000000001" y2="198.05320703143408" stroke="#26a69a" stroke-width="1"/>
<rect x="785.9354166666668" y="190.5665205711862" width="4.754166666666666" height="3.8229888307649276" fill="#26a69a" stroke="#26a69a" rx="0.5"/>
<rect x="785.9354166666668" y="442.2623627034439" width="4.754166666666666" height="49.337637296556125" fill="#26a69a" opacity="0.6"/>
<line x1="795.1041666666667" y1="185.78778453273014" x2="795.1041666666667" y2="221.6283048211509" stroke="#26a69a" stroke-width="1"/>
<rect x="792.7270833333334" y="192.47801498656872" width="4.754166666666666" height="12.584004901267718" fill="#26a69a" stroke="#26a69a" rx="0.5"/>
<rect x="792.7270833333334" y="451.03990239425656" width="4.754166666666666" height="40.560097605743465" fill="#26a69a" opacity="0.6"/>
<line x1="801.8958333333334" y1="205.3806022904001" x2="801.8958333333334" y2="233.25656251472736" stroke="#26a69a" stroke-width="1"/>
<rect x="799.5187500000001" y="206.814223101937" width="4.754166666666666" height="20.8671473679249" fill="#26a69a" stroke="#26a69a" rx="0.5"/>
<rect x="799.5187500000001" y="455.54613636425995" width="4.754166666666666" height="36.05386363574007" fill="#26a69a" opacity="0.6"/>
<line x1="808.6875000000001" y1="196.3010038173335" x2="808.6875000000001" y2="226.56633206088878" stroke="#ef5350" stroke-width="1"/>
<rect x="806.3104166666668" y="216.21240397756728" width="4.754166666666666" height="10.353928083321506" fill="none" stroke="#ef5350" rx="0.5"/>
<rect x="806.3104166666668" y="450.7478297238975" width="4.754166666666666" height="40.85217027610253" fill="#ef5350" opacity="0.6"/>
<line x1="815.4791666666667" y1="209.8407559262925" x2="815.4791666666667" y2="252.3715066685518" stroke="#26a69a" stroke-width="1"/>
<rect x="813.1020833333334" y="215.57523917243978" width="4.754166666666666" height="21.663603374334343" fill="#26a69a" stroke="#26a69a" rx="0.5"/>
<rect x="813.1020833333334" y="457.5858869786657" width="4.754166666666666" height="34.01411302133431" fill="#26a69a" opacity="0.6"/>
<line x1="822.2708333333334" y1="226.0884584570433" x2="822.2708333333334" y2="247.4334794288138" stroke="#ef5350" stroke-width="1"/>
<rect x="819.8937500000001" y="234.53089212498227" width="4.754166666666666" height="4.141571233328733" fill="none" stroke="#ef5350" rx="0.5"/>
<rect x="819.8937500000001" y="465.8716610464657" width="4.754166666666666" height="25.72833895353432" fill="#ef5350" opacity="0.6"/>
<line x1="829.0625000000001" y1="237.07955134549226" x2="829.0625000000001" y2="250.30072105188745" stroke="#26a69a" stroke-width="1"/>
<rect x="826.6854166666668" y="241.22112257882085" width="4.754166666666666" height="1.4336208115368834" fill="#26a69a" stroke="#26a69a" rx="0.5"/>
<rect x="826.6854166666668" y="469.87359461946045" width="4.754166666666666" height="21.726405380539575" fill="#26a69a" opacity="0.6"/>
<line x1="835.8541666666667" y1="220.51326641217779" x2="835.8541666666667" y2="261.76968754418215" stroke="#ef5350" stroke-width="1"/>
<rect x="833.4770833333334" y="235.64593053395538" width="4.754166666666666" height="15.451246524341485" fill="none" stroke="#ef5350" rx="0.5"/>
<rect x="833.4770833333334" y="450.73047614411695" width="4.754166666666666" height="40.869523855883074" fill="#ef5350" opacity="0.6"/>
<line x1="842.6458333333334" y1="210.3186295301381" x2="842.6458333333334" y2="257.62811631085344" stroke="#ef5350" stroke-width="1"/>
<rect x="840.2687500000001" y="228.79640887883497" width="4.754166666666666" height="28.831707432018476" fill="none" stroke="#ef5350" rx="0.5"/>
<rect x="840.2687500000001" y="449.63191311077554" width="4.754166666666666" height="41.96808688922448" fill="#ef5350" opacity="0.6"/>
<line x1="849.4375000000001" y1="214.77878316603048" x2="849.4375000000001" y2="259.53961072623594" stroke="#ef5350" stroke-width="1"/>
<rect x="847.0604166666668" y="223.8583816390971" width="4.754166666666666" height="4.938027239737863" fill="none" stroke="#ef5350" rx="0.5"/>
<rect x="847.0604166666668" y="444.2242455768623" width="4.754166666666666" height="47.37575442313772" fill="#ef5350" opacity="0.6"/>
<line x1="856.2291666666667" y1="201.55761345963518" x2="856.2291666666667" y2="238.03529855318354" stroke="#ef5350" stroke-width="1"/>
<rect x="853.8520833333334" y="211.43366793911122" width="4.754166666666666" height="24.212262594844162" fill="none" stroke="#ef5350" rx="0.5"/>
<rect x="853.8520833333334" y="441.48102522749974" width="4.754166666666666" height="50.11897477250028" fill="#ef5350" opacity="0.6"/>
<line x1="863.0208333333334" y1="156.15962109430234" x2="863.0208333333334" y2="211.1150855365474" stroke="#ef5350" stroke-width="1"/>
<rect x="860.6437500000001" y="156.15962109430234" width="4.754166666666666" height="42.84933314482299" fill="none" stroke="#ef5350" rx="0.5"/>
<rect x="860.6437500000001" y="421.44944306958865" width="4.754166666666666" height="70.15055693041137" fill="#ef5350" opacity="0.6"/>
<line x1="869.8125000000001" y1="125.7350016494651" x2="869.8125000000001" y2="180.37188368914653" stroke="#ef5350" stroke-width="1"/>
<rect x="867.4354166666668" y="132.5845233045855" width="4.754166666666666" height="26.60163061407232" fill="none" stroke="#ef5350" rx="0.5"/>
<rect x="867.4354166666668" y="404.1140408916879" width="4.754166666666666" height="87.4859591083121" fill="#ef5350" opacity="0.6"/>
<line x1="876.6041666666667" y1="111.39879353409682" x2="876.6041666666667" y2="162.2126867430133" stroke="#ef5350" stroke-width="1"/>
<rect x="874.2270833333334" y="125.09783684433764" width="4.754166666666666" height="13.69904331024081" fill="none" stroke="#ef5350" rx="0.5"/>
<rect x="874.2270833333334" y="418.5560392984354" width="4.754166666666666" height="73.04396070156463" fill="#ef5350" opacity="0.6"/>
<polyline points="95.5625,303.6632734813139 102.35416666666667,305.0968942928507 109.14583333333333,304.14114708515956 115.9375,290.2828125736369 122.72916666666667,277.06164286724163 129.52083333333334,259.53961072623594 136.31250000000003,234.37160092370047 143.10416666666669,220.35397521089598 149.89583333333334,214.93807436731234 156.68750000000003,215.73453037372164 163.47916666666669,213.02657995192993 170.27083333333334,218.76106319807724 177.06250000000003,219.7168104057684 183.85416666666669,223.69909043781513 190.64583333333334,226.8849144634526 197.43750000000003,234.2123097224186 204.22916666666669,241.06183137753905 211.02083333333334,247.9113530326594 217.81250000000003,249.34497384419618 224.60416666666669,252.3715066685518 231.39583333333334,253.80512748008857 238.18750000000003,260.9732315377728 244.97916666666669,262.08826994674587 251.77083333333334,265.592676374947 258.5625,266.5484235826382 265.3541666666667,269.89353880955747 272.1458333333333,273.8758188416042 278.9375,279.9288844903153 285.7291666666667,287.8934445544088 292.5208333333333,296.6544606249116 299.3125,305.41547669541444 306.1041666666667,306.6898063056695 312.8958333333333,307.64555351336065 319.6875,310.0349215325887 326.4791666666667,307.64555351336065 333.2708333333333,303.1853998774683 340.0625,303.6632734813139 346.8541666666667,299.84028465054905 353.6458333333333,293.9465102031199 360.4375,291.5571421838918 367.2291666666667,289.4863565672275 374.0208333333333,280.40675809416086 380.8125,277.53951647108727 387.6041666666667,275.1501484518592 394.3958333333333,278.81384608134226 401.1875,284.8669117300533 407.9791666666667,294.42438380696547 414.7708333333333,301.5924878646496 421.5625,307.9641359159244 428.3541666666667,309.2384655261794 435.1458333333333,307.1676799095151 441.9375,301.11461426080405 448.7291666666667,296.1765870210661 455.5208333333333,289.1677741646638 462.3125,284.07045572364393 469.1041666666667,285.66336773646265 475.8958333333333,296.3358782223479 482.6875,311.3092511428437 489.4791666666667,326.2826240633395 496.2708333333333,341.89316178896274 503.0625,349.8577218530562 509.8541666666667,352.0877986710024 516.6458333333334,345.8754418210095 523.4375000000001,338.3887553607616 530.2291666666667,328.19411847872186 537.0208333333334,322.77821763513833 543.8125000000001,318.1587727979641 550.6041666666667,317.8401903954004 557.3958333333334,322.14105283001084 564.1875000000001,326.76049766718506 570.9791666666667,325.645459258212 577.7708333333334,327.39766247231256 584.5625000000001,325.8047504594939 591.3541666666667,320.86672321975584 598.1458333333334,309.71633913002495 604.9375000000001,303.8225646825958 611.7291666666667,295.69871341722046 618.5208333333334,290.12352137235496 625.3125000000001,285.50407653518073 632.1041666666667,282.1589613082615 638.8958333333334,276.2651868608323 645.6875000000001,276.4244780621142 652.4791666666667,266.7077147839201 659.2708333333334,252.84938027239744 666.0625000000001,247.1148970262501 672.8541666666667,234.53089212498227 679.6458333333334,214.61949196474853 686.4375000000001,198.5310806352797 693.2291666666667,188.97360855836746 700.0208333333334,185.15061972760267 706.8125000000001,186.26565813657578 713.6041666666667,192.63730618785056 720.3958333333334,204.90272868655447 727.1875000000001,218.76106319807724 733.9791666666667,214.141618360903 740.7708333333334,206.814223101937 747.5625000000001,197.7346246288704 754.3541666666667,176.54889485838171 761.1458333333334,151.69946745840994 767.9375000000001,131.15090249304873 774.7291666666667,128.60224327253877 781.5208333333334,130.83232009048493 788.3125000000001,146.44285781610827 795.1041666666667,164.60205476224147 801.8958333333334,193.27447099297802 808.6875000000001,206.01776709552757 815.4791666666667,216.05311277628542 822.2708333333334,224.17696404166074 829.0625000000001,231.66365050190862 835.8541666666667,233.25656251472736 842.6458333333334,235.80522173523735 849.4375000000001,233.0972713134455 856.2291666666667,228.4778264762713 863.0208333333334,211.1150855365474 869.8125000000001,190.5665205711862 876.6041666666667,169.85866440454313" fill="none" stroke="#ff9800" stroke-width="1.2"/>
<polyline points="129.52083333333334,281.521796503134 136.31250000000003,269.7342476082756 143.10416666666669,262.24756114802767 149.89583333333334,252.6900890711155 156.68750000000003,246.47773222112252 163.47916666666669,236.28309533908296 170.27083333333334,226.56633206088878 177.06250000000003,220.03539280833218 183.85416666666669,219.3982280032047 190.64583333333334,221.30972241858709 197.43750000000003,223.69909043781513 204.22916666666669,229.91144728780807 211.02083333333334,233.734436118573 217.81250000000003,236.60167774164665 224.60416666666669,239.62821056600217 231.39583333333334,244.0883642018945 238.18750000000003,251.09717705829686 244.97916666666669,255.07945709034357 251.77083333333334,257.46882510957164 258.5625,259.53961072623594 265.3541666666667,261.92897874546395 272.1458333333333,267.34487958904754 278.9375,271.00857721853055 285.7291666666667,276.7430604646779 292.5208333333333,281.521796503134 299.3125,287.7341533531269 306.1041666666667,290.2828125736369 312.8958333333333,293.787219001838 319.6875,299.0438286441397 326.4791666666667,302.0703614684952 333.2708333333333,304.30043828644136 340.0625,305.25618549413264 346.8541666666667,303.6632734813139 353.6458333333333,301.9110702672134 360.4375,299.52170224798533 367.2291666666667,296.3358782223479 374.0208333333333,292.0350157877374 380.8125,288.68990056081816 387.6041666666667,284.54832932748957 394.3958333333333,285.185494132617 401.1875,287.2562797492813 407.9791666666667,287.41557095056316 414.7708333333333,289.4863565672275 421.5625,291.5571421838918 428.3541666666667,294.10580140440175 435.1458333333333,296.0172958197842 441.9375,297.7694990338847 448.7291666666667,298.88453744285783 455.5208333333333,298.5659550402941 462.3125,296.6544606249116 469.1041666666667,296.3358782223479 475.8958333333333,298.725246241576 482.6875,303.6632734813139 489.4791666666667,307.64555351336065 496.2708333333333,312.9021631556624 503.0625,317.8401903954004 509.8541666666667,324.21183844667513 516.6458333333334,328.51270088128564 523.4375000000001,332.3356897120505 530.2291666666667,335.0436401338423 537.0208333333334,336.3179697440973 543.8125000000001,335.20293133512416 550.6041666666667,331.85781610820493 557.3958333333334,330.2649040953862 564.1875000000001,327.5569536735944 570.9791666666667,324.21183844667513 577.7708333333334,322.77821763513833 584.5625000000001,321.8224704274471 591.3541666666667,321.5038880248834 598.1458333333334,318.3180639992459 604.9375000000001,314.8136575710448 611.7291666666667,311.4685423441255 618.5208333333334,307.9641359159244 625.3125000000001,303.1853998774683 632.1041666666667,296.0172958197842 638.8958333333334,289.9642301710731 645.6875000000001,285.98195013902637 652.4791666666667,278.49526367877843 659.2708333333334,269.09708280314817 666.0625000000001,264.63692916725574 672.8541666666667,255.3980394929073 679.6458333333334,245.52198501343142 686.4375000000001,232.6193977095999 693.2291666666667,220.99114001602345 700.0208333333334,216.05311277628542 706.8125000000001,210.47792073141994 713.6041666666667,203.62839907629956 720.3958333333334,201.71690466091715 727.1875000000001,203.94698147886334 733.9791666666667,199.6461190442528 740.7708333333334,196.61958621989731 747.5625000000001,195.18596540836043 754.3541666666667,190.72581177246803 761.1458333333334,185.3099109288845 767.9375000000001,172.7259060276168 774.7291666666667,167.62858758659695 781.5208333333334,164.28347235967766 788.3125000000001,161.57552193788587 795.1041666666667,158.07111550968472 801.8958333333334,162.2126867430133 808.6875000000001,167.31000518403317 815.4791666666667,173.52236203402612 822.2708333333334,185.3099109288845 829.0625000000001,198.05320703143408 835.8541666666667,213.18587115321176 842.6458333333334,220.83184881474148 849.4375000000001,224.6548376455064 856.2291666666667,226.24774965832512 863.0208333333334,221.46901361986895 869.8125000000001,211.91154154295683 876.6041666666667,202.83194306989026" fill="none" stroke="#2196f3" stroke-width="1.2"/>
<polyline points="197.43750000000003,252.6900890711155 204.22916666666669,249.82284744804184 211.02083333333334,247.9113530326594 217.81250000000003,244.56623780574014 224.60416666666669,242.97332579292143 231.39583333333334,240.10608416984778 238.18750000000003,238.83175455959284 244.97916666666669,237.5574249493379 251.77083333333334,238.51317215702903 258.5625,240.42466657241152 265.3541666666667,242.81403459163957 272.1458333333333,248.70780903906874 278.9375,252.3715066685518 285.7291666666667,256.6723691031623 292.5208333333333,260.65464913520907 299.3125,265.91125877751074 306.1041666666667,270.6899948159668 312.8958333333333,274.35369244544984 319.6875,278.3359724774966 326.4791666666667,280.7253404967246 333.2708333333333,283.11470851595277 340.0625,286.3005325415901 346.8541666666667,287.41557095056316 353.6458333333333,289.32706536594566 360.4375,290.6013949762006 367.2291666666667,292.0350157877374 374.0208333333333,291.23855978132804 380.8125,291.23855978132804 387.6041666666667,291.7164333851737 394.3958333333333,293.6279278005561 401.1875,295.69871341722046 407.9791666666667,296.3358782223479 414.7708333333333,296.6544606249116 421.5625,296.81375182619354 428.3541666666667,296.81375182619354 435.1458333333333,296.1765870210661 441.9375,294.9022574108111 448.7291666666667,293.787219001838 455.5208333333333,291.5571421838918 462.3125,290.9199773787643 469.1041666666667,291.7164333851737 475.8958333333333,292.9907629954286 482.6875,296.6544606249116 489.4791666666667,299.6809934492672 496.2708333333333,303.503982280032 503.0625,306.84909750695135 509.8541666666667,310.99066874028 516.6458333333334,313.69861916207174 523.4375000000001,315.45082237617225 530.2291666666667,315.76940477873603 537.0208333333334,316.40656958386353 543.8125000000001,316.8844431877091 550.6041666666667,317.8401903954004 557.3958333333334,318.95522880437346 564.1875000000001,320.2295584146284 570.9791666666667,321.02601442103776 577.7708333333334,323.5746736415477 584.5625000000001,325.1675856543664 591.3541666666667,326.919788868467 598.1458333333334,326.6012064659032 604.9375000000001,325.645459258212 611.7291666666667,323.4153824402658 618.5208333333334,319.9109760120647 625.3125000000001,316.72515198642725 632.1041666666667,311.7871247466893 638.8958333333334,307.1676799095151 645.6875000000001,304.4597294877233 652.4791666666667,300.1588670531128 659.2708333333334,295.3801310146567 666.0625000000001,291.39785098260995 672.8541666666667,285.0262029313351 679.6458333333334,278.49526367877843 686.4375000000001,270.37141241340305 693.2291666666667,262.08826994674587 700.0208333333334,256.0352042980347 706.8125000000001,250.30072105188745 713.6041666666667,244.88482020830392 720.3958333333334,240.10608416984778 727.1875000000001,236.60167774164665 733.9791666666667,232.14152410575429 740.7708333333334,225.9291672557613 747.5625000000001,220.35397521089598 754.3541666666667,211.75225034167488 761.1458333333334,203.15052547245392 767.9375000000001,194.38950940195113 774.7291666666667,189.13289975964943 781.5208333333334,183.87629011734762 788.3125000000001,181.64621329940144 795.1041666666667,181.00904849427397 801.8958333333334,180.84975729299214 808.6875000000001,181.96479570196522 815.4791666666667,184.35416372119326 822.2708333333334,188.01786135067633 829.0625000000001,191.68155898015928 835.8541666666667,192.95588859041425 842.6458333333334,194.23021820066927 849.4375000000001,194.38950940195113 856.2291666666667,193.9116357981055 863.0208333333334,189.7700645647769 869.8125000000001,187.06211414298508 876.6041666666667,184.99132852632073" fill="none" stroke="#e91e63" stroke-width="1.2"/>
<text x="75" y="42" fill="#aaa" font-size="11">K线</text>
<line x1="110" y1="38" x2="125" y2="38" stroke="#ff9800" stroke-width="2"/>
<text x="128" y="42" fill="#ff9800" font-size="11">MA5</text>
<line x1="175" y1="38" x2="190" y2="38" stroke="#2196f3" stroke-width="2"/>
<text x="193" y="42" fill="#2196f3" font-size="11">MA10</text>
<line x1="240" y1="38" x2="255" y2="38" stroke="#e91e63" stroke-width="2"/>
<text x="258" y="42" fill="#e91e63" font-size="11">MA20</text>
<text x="68.39583333333333" y="506.6" text-anchor="middle" fill="#666" font-size="9"></text>
<text x="170.27083333333334" y="506.6" text-anchor="middle" fill="#666" font-size="9"></text>
<text x="272.1458333333333" y="506.6" text-anchor="middle" fill="#666" font-size="9"></text>
<text x="374.0208333333333" y="506.6" text-anchor="middle" fill="#666" font-size="9"></text>
<text x="475.8958333333333" y="506.6" text-anchor="middle" fill="#666" font-size="9"></text>
<text x="577.7708333333334" y="506.6" text-anchor="middle" fill="#666" font-size="9"></text>
<text x="679.6458333333334" y="506.6" text-anchor="middle" fill="#666" font-size="9"></text>
<text x="781.5208333333334" y="506.6" text-anchor="middle" fill="#666" font-size="9"></text>
<text x="60" y="402.0" text-anchor="end" fill="#666" font-size="9">28977万</text>
<text x="60" y="495.6" text-anchor="end" fill="#666" font-size="9">0</text>
</svg>